# xmcd
#
# Track frame offsets: 
#        150
#        1075
#        20844
#        41673
#        62347
#        78114
#        93479
#        113541
#        132115
#        149419
#        169854
#        171531
#        188860
#        206420
#        221031
#        237925
#
# Disc length: 3393 seconds
#
# Revision: 2
# Processed by: cddbd v1.5.2PL0 Copyright (c) Steve Scherf et al.
# Submitted via: ExactAudioCopyFreeDBPlugin 1.0
#
DISCID=d70d3f10
DTITLE=Van Hunt - On the Jungle Floor
DYEAR=2006
DGENRE=Rhythm and Blues
TTITLE0=Intro
TTITLE1=If I Take You Home (Upon . . .)
TTITLE2=Hot Stage Lights
TTITLE3=Daredevil, Baby
TTITLE4=Ride, Ride, Ride
TTITLE5=Being a Girl
TTITLE6=Suspicion (She Knows Me Too Well)
TTITLE7=Mean Sleep (ft Nikka Costa)
TTITLE8=Priest or Police
TTITLE9=Character
TTITLE10=Interlude
TTITLE11=No Sense of Crime
TTITLE12=At the End of a Slow Dance
TTITLE13=The Thrill of This Love
TTITLE14=Hole in My Heart
TTITLE15=The Night is Young
EXTD=
EXTT0=
EXTT1=
EXTT2=
EXTT3=
EXTT4=
EXTT5=
EXTT6=
EXTT7=
EXTT8=
EXTT9=
EXTT10=
EXTT11=
EXTT12=
EXTT13=
EXTT14=
EXTT15=
PLAYORDER=
